<svg height="24" viewBox="0 0 24 24" width="24" xmlns="http://www.w3.org/2000/svg">
    <path d="M0 0h24v24H0z" fill="none"/>
<g id="Layer_2" data-name="Layer 2"><g id="Layer_1-2" data-name="Layer 1"><path d="M12.59.23a.86.86,0,0,0-.12-.07.9.9,0,0,0-.15-.09l-.16,0L12,0l-.17,0-.17,0a1,1,0,0,0-.15.09.79.79,0,0,0-.12.08L.28,10.56a.89.89,0,0,0,0,1.26.89.89,0,0,0,1.25,0L2.8,10.64v9a.89.89,0,0,0,.89.89h16.6a.89.89,0,0,0,.89-.89V10.62l1.34,1.24a.88.88,0,0,0,1.25,0,.89.89,0,0,0,0-1.26ZM19.4,18.79H4.58V9L12,2.1,19.4,9Z"/><path  d="M10.62,9.14H6.85A.89.89,0,0,0,6,10v3.79a.89.89,0,0,0,.89.89h3.77a.89.89,0,0,0,.89-.89V10A.89.89,0,0,0,10.62,9.14Zm-.89,3.79h-2v-2h2Z"/></g></g></svg>